<svg xmlns="http://www.w3.org/2000/svg" viewBox="0 0 500 500"><g id="freepik--background-complete--inject-2"><rect y="382.4" width="500" height="0.25" style="fill:#ebebeb"></rect><rect x="394.67" y="398.49" width="55.23" height="0.25" style="fill:#ebebeb"></rect><rect x="321.81" y="393.25" width="8.69" height="0.25" style="fill:#ebebeb"></rect><rect x="372.47" y="389.21" width="19.19" height="0.25" style="fill:#ebebeb"></rect><rect x="52.46" y="390.89" width="43.19" height="0.25" style="fill:#ebebeb"></rect><rect x="215.33" y="397.35" width="45.72" height="0.25" style="fill:#ebebeb"></rect><rect x="140.46" y="393.12" width="93.68" height="0.25" style="fill:#ebebeb"></rect><path d="M242.72,332.09A5.71,5.71,0,0,1,237,337.8H43.91a5.71,5.71,0,0,1-5.7-5.71V60.66A5.71,5.71,0,0,1,43.91,55H237a5.71,5.71,0,0,1,5.71,5.71m-.25,0A5.47,5.47,0,0,0,237,55.2H43.91a5.46,5.46,0,0,0-5.45,5.46V332.09a5.46,5.46,0,0,0,5.45,5.46H237a5.47,5.47,0,0,0,5.46-5.46" style="fill:#ebebeb"></path><path d="M453.31,337.8H260.21a5.72,5.72,0,0,1-5.71-5.71V60.66A5.72,5.72,0,0,1,260.21,55h193.1A5.71,5.71,0,0,1,459,60.66V332.09A5.71,5.71,0,0,1,453.31,337.8ZM260.21,55.2a5.47,5.47,0,0,0-5.46,5.46V332.09a5.47,5.47,0,0,0,5.46,5.46h193.1a5.47,5.47,0,0,0,5.46-5.46V60.66a5.47,5.47,0,0,0-5.46-5.46Z" style="fill:#ebebeb"></path><rect x="90.27" y="108.83" width="191" height="94.9" rx="5.4" style="fill:#f5f5f5"></rect><rect x="82.32" y="100.88" width="191" height="94.9" rx="5.4" style="fill:#e0e0e0"></rect><rect x="74.16" y="92.72" width="191" height="94.9" rx="5.4" style="fill:#ebebeb"></rect><rect x="85.47" y="103.39" width="168.38" height="29.76" rx="5.36" style="fill:#fff"></rect><rect x="118.18" y="145.57" width="102.96" height="25.69" rx="3.89" style="fill:#e0e0e0"></rect><path d="M169.66,127.35a1.69,1.69,0,0,1-1.68-1.69V110.87a1.69,1.69,0,0,1,3.37,0v14.79A1.69,1.69,0,0,1,169.66,127.35Z" style="fill:#e0e0e0"></path><path d="M177.05,120H162.27a1.69,1.69,0,1,1,0-3.37h14.78a1.69,1.69,0,1,1,0,3.37Z" style="fill:#e0e0e0"></path><path d="M174.89,125.18a1.67,1.67,0,0,1-1.19-.49l-10.46-10.46a1.68,1.68,0,1,1,2.38-2.38l10.46,10.45a1.69,1.69,0,0,1,0,2.39A1.67,1.67,0,0,1,174.89,125.18Z" style="fill:#e0e0e0"></path><path d="M164.43,125.18a1.67,1.67,0,0,1-1.19-.49,1.69,1.69,0,0,1,0-2.39l10.46-10.45a1.68,1.68,0,0,1,2.38,2.38l-10.46,10.46A1.67,1.67,0,0,1,164.43,125.18Z" style="fill:#e0e0e0"></path><path d="M211.78,127.35a1.69,1.69,0,0,1-1.69-1.69V110.87a1.69,1.69,0,0,1,3.37,0v14.79A1.69,1.69,0,0,1,211.78,127.35Z" style="fill:#e0e0e0"></path><path d="M219.17,120H204.38a1.69,1.69,0,0,1,0-3.37h14.79a1.69,1.69,0,0,1,0,3.37Z" style="fill:#e0e0e0"></path><path d="M217,125.18a1.67,1.67,0,0,1-1.19-.49l-10.45-10.46a1.68,1.68,0,1,1,2.38-2.38L218.2,122.3a1.71,1.71,0,0,1,0,2.39A1.68,1.68,0,0,1,217,125.18Z" style="fill:#e0e0e0"></path><path d="M206.55,125.18a1.67,1.67,0,0,1-1.19-.49,1.69,1.69,0,0,1,0-2.39l10.45-10.45a1.69,1.69,0,1,1,2.39,2.38l-10.46,10.46A1.67,1.67,0,0,1,206.55,125.18Z" style="fill:#e0e0e0"></path><path d="M127.55,127.35a1.69,1.69,0,0,1-1.69-1.69V110.87a1.69,1.69,0,0,1,3.37,0v14.79A1.69,1.69,0,0,1,127.55,127.35Z" style="fill:#e0e0e0"></path><path d="M134.94,120H120.15a1.69,1.69,0,0,1,0-3.37h14.79a1.69,1.69,0,0,1,0,3.37Z" style="fill:#e0e0e0"></path><path d="M132.77,125.18a1.67,1.67,0,0,1-1.19-.49l-10.45-10.46a1.68,1.68,0,1,1,2.38-2.38L134,122.3a1.71,1.71,0,0,1,0,2.39A1.68,1.68,0,0,1,132.77,125.18Z" style="fill:#e0e0e0"></path><path d="M122.32,125.18a1.66,1.66,0,0,1-1.19-.49,1.69,1.69,0,0,1,0-2.39l10.45-10.45a1.69,1.69,0,1,1,2.39,2.38l-10.46,10.46A1.67,1.67,0,0,1,122.32,125.18Z" style="fill:#e0e0e0"></path><path d="M68.74,305,55.5,263a3,3,0,0,1,2.18-3.78l1.69-.37a51.59,51.59,0,0,0,14.71-6,38.84,38.84,0,0,0,11.56-11.1,3,3,0,0,1,4-.89,39.32,39.32,0,0,0,15.21,5.09,51.56,51.56,0,0,0,15.87-.84l1.7-.38a2.94,2.94,0,0,1,3.57,2.48l6,43.66a2.93,2.93,0,0,1-.83,2.48l-24.63,24.79a3,3,0,0,1-3.1.7L70.55,306.93A3,3,0,0,1,68.74,305Z" style="fill:#f0f0f0"></path><path d="M96.45,267.78,96,279.38l6.1,21.56-8.64-21.7L92.36,269l-5.75-6.23,1.59-20.55a1.33,1.33,0,0,1,2-1.05,37.89,37.89,0,0,0,4.35,2.11,1,1,0,0,1,.58,1.14l-3.94,15.68Z" style="fill:#e0e0e0"></path><path d="M359.67,101.07l-55.48,18a4.36,4.36,0,0,0-2.8,5.48l12.37,38.16a4.36,4.36,0,0,0,5.48,2.8l55.48-18a4.36,4.36,0,0,0,2.8-5.48l-12.37-38.16A4.36,4.36,0,0,0,359.67,101.07Z" style="fill:#f5f5f5"></path><path d="M342.46,131.73l6.16,13.74-9.43,3.06-3.08-14.74a7.35,7.35,0,1,1,6.35-2.06Z" style="fill:#e0e0e0"></path><path d="M293.34,72.4c-8.57,12.06-5.59,28.88,5.88,38.23l2.73,2.23a3.86,3.86,0,0,0,4.88-6L303.34,104a20.12,20.12,0,0,1-1.06-30.22c7.41-7,19.1-6.93,27-.48l4.34-6.42A27.84,27.84,0,0,0,293.34,72.4Z" style="fill:#ebebeb"></path><path d="M376.75,330.48a24.36,24.36,0,0,1-17.27-7.14h0a24.46,24.46,0,1,1,17.27,7.14Zm-10.6-13.81a15,15,0,1,0,0-21.2,15,15,0,0,0,0,21.2Z" style="fill:#ebebeb"></path><path d="M425.37,359.41A4.7,4.7,0,0,1,422,358l-34.69-34.69a4.72,4.72,0,0,1,6.67-6.67l34.69,34.69a4.72,4.72,0,0,1-3.34,8.05Z" style="fill:#ebebeb"></path><path d="M407.29,365.94a4.73,4.73,0,0,1-3.34-8.06l12.31-12.3a4.72,4.72,0,1,1,6.67,6.67l-12.31,12.3A4.67,4.67,0,0,1,407.29,365.94Z" style="fill:#ebebeb"></path><path d="M401.54,352.41a4.72,4.72,0,0,1-3.33-8.05l8.41-8.42a4.72,4.72,0,1,1,6.67,6.67L404.88,351A4.71,4.71,0,0,1,401.54,352.41Z" style="fill:#ebebeb"></path></g><g id="freepik--Shadow--inject-2"><ellipse id="freepik--path--inject-2" cx="250" cy="416.24" rx="193.89" ry="11.32" style="fill:#f5f5f5"></ellipse></g><g id="freepik--Character--inject-2"><path d="M323.48,259.43c-3.62,5.17-13.88,17.51-22.9,20.84C286.36,308.48,306,348.83,325,362c0,0,53.1-27.56,61.56-95Z" style="fill:#263238"></path><path d="M391.21,96.41c-10.78-2-35.77-3.07-37.64,26s-11.3,48.21,12.65,53.32l1.68-7.9Z" style="fill:#263238"></path><path d="M391.21,96.41c-10.78-2-35.77-3.07-37.64,26s-11.3,48.21,12.65,53.32l1.68-7.9Z" style="fill:#fff;opacity:0.2"></path><path d="M350.62,167.21a11,11,0,0,0-14.48,5.68l-.05.12-4.73,10.83c-1.58,3.63-3.21,7.23-4.83,10.79-.81,1.78-1.64,3.54-2.5,5.26s-1.67,3.46-2.54,5.11-1.77,3.25-2.64,4.76c-.36.6-.72,1.18-1.07,1.73l-1.7.25a55.56,55.56,0,0,1-6.05.34c-2.11,0-4.27-.08-6.47-.2s-4.42-.36-6.66-.59c-4.48-.47-9-1.13-13.58-1.88-2.27-.37-4.56-.75-6.84-1.18L269.69,207l-.19,0a5.49,5.49,0,0,0-3.43,10.31,146.24,146.24,0,0,0,13.61,5.8c2.31.84,4.63,1.67,7,2.41s4.75,1.44,7.17,2.09a108.46,108.46,0,0,0,15.08,2.91,72.08,72.08,0,0,0,8.18.45,42.61,42.61,0,0,0,9-1,8.73,8.73,0,0,0,4.36-2.43l.46-.47a57,57,0,0,0,4.9-5.86c1.4-1.88,2.61-3.78,3.79-5.65,2.37-3.74,4.46-7.48,6.43-11.25,1-1.88,1.95-3.77,2.86-5.67s1.84-3.8,2.69-5.72,1.72-3.82,2.52-5.77,1.58-3.84,2.36-5.92A11,11,0,0,0,350.62,167.21Z" style="fill:#263238"></path><path d="M350.62,167.21a11,11,0,0,0-14.48,5.68l-.05.12-4.73,10.83c-1.58,3.63-3.21,7.23-4.83,10.79-.81,1.78-1.64,3.54-2.5,5.26s-1.67,3.46-2.54,5.11-1.77,3.25-2.64,4.76c-.36.6-.72,1.18-1.07,1.73l-1.7.25a55.56,55.56,0,0,1-6.05.34c-2.11,0-4.27-.08-6.47-.2s-4.42-.36-6.66-.59c-4.48-.47-9-1.13-13.58-1.88-2.27-.37-4.56-.75-6.84-1.18L269.69,207l-.19,0a5.49,5.49,0,0,0-3.43,10.31,146.24,146.24,0,0,0,13.61,5.8c2.31.84,4.63,1.67,7,2.41s4.75,1.44,7.17,2.09a108.46,108.46,0,0,0,15.08,2.91,72.08,72.08,0,0,0,8.18.45,42.61,42.61,0,0,0,9-1,8.73,8.73,0,0,0,4.36-2.43l.46-.47a57,57,0,0,0,4.9-5.86c1.4-1.88,2.61-3.78,3.79-5.65,2.37-3.74,4.46-7.48,6.43-11.25,1-1.88,1.95-3.77,2.86-5.67s1.84-3.8,2.69-5.72,1.72-3.82,2.52-5.77,1.58-3.84,2.36-5.92A11,11,0,0,0,350.62,167.21Z" style="fill:#fff;opacity:0.2"></path><path d="M267.73,206.37l-8.22-2.44-.07,14.27s5.25.89,9-.47a5.13,5.13,0,0,0,3.17-5.66l-.22-1.46A5.26,5.26,0,0,0,267.73,206.37Z" style="fill:#ce7a63"></path><path d="M248.6,209.73l.82,5a4.11,4.11,0,0,0,4.06,3.46h6l.07-14.27-7.42,1A4.12,4.12,0,0,0,248.6,209.73Z" style="fill:#ce7a63"></path><path d="M394,163.8a205.43,205.43,0,0,0-45.39-1.57,14.3,14.3,0,0,0-13.06,13.52,403,403,0,0,1-13.68,89c6.39,7.29,28.31,20.73,63.94,12.19,11.54-19.49,19.59-48.73,27.29-85.89A22.58,22.58,0,0,0,394,163.8Z" style="fill:#263238"></path><path d="M394,163.8a205.43,205.43,0,0,0-45.39-1.57,14.3,14.3,0,0,0-13.06,13.52,403,403,0,0,1-13.68,89c6.39,7.29,28.31,20.73,63.94,12.19,11.54-19.49,19.59-48.73,27.29-85.89A22.58,22.58,0,0,0,394,163.8Z" style="fill:#fff;opacity:0.4"></path><path d="M362.83,170.38c-6.95,19.5-6.4,32.24-8,46.07s-8.76,45.63-16.68,54.73" style="fill:none;stroke:#263238;stroke-miterlimit:10;stroke-width:0.9434048533439636px;opacity:0.4"></path><path d="M151.66,128.43q15.36,6.7,30.46,13.91T212.2,157q29.91,15,59.12,31.44t57.33,34.75c18.67,12.32,36.89,25.37,54.41,39.41a3.49,3.49,0,1,1-4.37,5.45l0,0-.06,0c-17-14.15-34.83-27.42-53.14-40q-27.65-18.62-56.39-35.62T210.7,159.93q-14.79-7.77-29.75-15.19t-30.11-14.43h0a1,1,0,0,1,.84-1.87Z" style="fill:#263238"></path><path d="M354.3,250.91q-23.68-17.59-48.6-33.46-12.42-8-25.05-15.59t-25.43-15q-25.6-14.68-51.8-28.28c-17.46-9.06-35.06-17.86-52.91-26.12l.15,0a100.12,100.12,0,0,0-17.91-.11,113.77,113.77,0,0,0-17.7,2.78,74.62,74.62,0,0,0-8.55,2.61,35.54,35.54,0,0,0-7.89,4,13.4,13.4,0,0,0-3.12,3,6,6,0,0,0-1.27,3.86,7.17,7.17,0,0,0,1.55,3.84,17.54,17.54,0,0,0,3.07,3.08,43.25,43.25,0,0,0,7.57,4.64c2.65,1.33,5.48,2.41,8.14,3.9a25.79,25.79,0,0,1,7.29,5.55,11.54,11.54,0,0,1,2.29,4.11,10.09,10.09,0,0,1,.12,4.73,22.73,22.73,0,0,1-4.12,8.2c-1.79,2.46-3.76,4.74-5.66,7.05a73.16,73.16,0,0,0-5.38,7.13A18.75,18.75,0,0,0,106,209a11.5,11.5,0,0,0,2.44,8,26.56,26.56,0,0,0,6.44,5.92c4.85,3.35,10.9,4.49,16.79,4.35a68.21,68.21,0,0,0,17.53-3A156.24,156.24,0,0,0,166,218.07c11-4.67,21.7-10.18,32.52-15.43a156,156,0,0,1,16.6-7.19,38.38,38.38,0,0,1,4.41-1.25,17.2,17.2,0,0,1,4.67-.45,7.2,7.2,0,0,1,2.42.55,5,5,0,0,1,2.06,1.6,7.86,7.86,0,0,1,1.28,4.71.74.74,0,0,1-.73.75.75.75,0,0,1-.74-.73v0a6.44,6.44,0,0,0-1-3.83,4.47,4.47,0,0,0-3.41-1.58,16,16,0,0,0-4.27.41,40.13,40.13,0,0,0-4.25,1.2,156.5,156.5,0,0,0-16.45,7.09c-10.8,5.22-21.5,10.73-32.61,15.4a156.54,156.54,0,0,1-17,6.17,69.78,69.78,0,0,1-17.88,3.05,35.85,35.85,0,0,1-9.1-.92,25.18,25.18,0,0,1-8.41-3.68,28,28,0,0,1-6.74-6.22,14.81,14.81,0,0,1-2.15-4.16,12.16,12.16,0,0,1-.5-4.68,19.86,19.86,0,0,1,3.33-8.59,72.14,72.14,0,0,1,5.47-7.23c1.92-2.32,3.88-4.59,5.63-7a21.68,21.68,0,0,0,4-7.75,9,9,0,0,0-.09-4.19,10.36,10.36,0,0,0-2.07-3.7,24.51,24.51,0,0,0-7-5.31c-2.58-1.45-5.38-2.53-8.09-3.9a43.65,43.65,0,0,1-7.75-4.77,18.47,18.47,0,0,1-3.26-3.29,8.17,8.17,0,0,1-1.74-4.4,7.06,7.06,0,0,1,1.47-4.53A14.65,14.65,0,0,1,98,141a36.57,36.57,0,0,1,8.13-4.12,73.32,73.32,0,0,1,8.67-2.63,113.57,113.57,0,0,1,17.86-2.77,100.07,100.07,0,0,1,18.07.14.42.42,0,0,1,.15,0c17.85,8.31,35.44,17.15,52.89,26.25s34.71,18.57,51.76,28.4q12.81,7.37,25.42,15T306,217q24.83,16,48.56,33.59a.21.21,0,1,1-.26.34Z" style="fill:#263238"></path><path d="M166.35,137.32l-1.1,2a1.28,1.28,0,0,1-1.73.49h0a1.28,1.28,0,0,1-.49-1.73l1.11-2a1.28,1.28,0,0,1,1.73-.49h0A1.26,1.26,0,0,1,166.35,137.32Z" style="fill:#263238"></path><path d="M224.57,167.19l-1.11,2a1.26,1.26,0,0,1-1.73.48h0a1.26,1.26,0,0,1-.48-1.73l1.1-2a1.26,1.26,0,0,1,1.73-.48h0A1.28,1.28,0,0,1,224.57,167.19Z" style="fill:#263238"></path><path d="M285.23,201.17l-1.11,2a1.28,1.28,0,0,1-1.73.49h0a1.28,1.28,0,0,1-.49-1.73l1.11-2a1.28,1.28,0,0,1,1.73-.49h0A1.28,1.28,0,0,1,285.23,201.17Z" style="fill:#263238"></path><path d="M343.35,239.68l-1.11,2a1.28,1.28,0,0,1-1.73.49h0a1.28,1.28,0,0,1-.49-1.73l1.11-2a1.28,1.28,0,0,1,1.73-.49h0A1.28,1.28,0,0,1,343.35,239.68Z" style="fill:#263238"></path><path d="M373.88,250.77l-8.41,15a1.57,1.57,0,0,1-2.27.53l-21.56-15a1.56,1.56,0,0,1-.47-2.06l8.41-15a1.57,1.57,0,0,1,2.27-.53l21.56,15A1.56,1.56,0,0,1,373.88,250.77Z" style="fill:#263238"></path><path d="M354,266.86a8.77,8.77,0,0,1-5-1.56l-1.49-1a8.69,8.69,0,0,1-2.63-11.43l1.81-3.22a2.61,2.61,0,0,1,1.68-1.27,2.64,2.64,0,0,1,2.06.4l11.61,8.07a2.59,2.59,0,0,1,.78,3.4l-1.23,2.19a8.75,8.75,0,0,1-5.65,4.24A8.64,8.64,0,0,1,354,266.86Zm-4.74-14.68L348,254.54a5.19,5.19,0,0,0,1.58,6.85l1.48,1a5.19,5.19,0,0,0,4.17.8,5.11,5.11,0,0,0,3.38-2.54l.83-1.48Zm10.52,6.32Z" style="fill:#263238"></path><path d="M372.71,245.55l-2.15,3.84a.69.69,0,0,1-1,.23l-14.35-10a.86.86,0,0,1-.25-1.11l2.15-3.84a.69.69,0,0,1,1-.23l14.35,10A.86.86,0,0,1,372.71,245.55Z" style="fill:#263238"></path><path d="M386.12,134.41l-18.2,12.74c1.45,6.45,1.5,13.2-7.42,15.19.74,3,3.11,4.91,7.4,5.46,5.63,1.1,9.92,1.6,14.61-1.7,1.84-1.29,4.06-2.49,3.07-4.64C382.21,154.15,384.27,141.66,386.12,134.41Z" style="fill:#ce7a63"></path><path d="M378.7,139.61l-10.77,7.53a25.25,25.25,0,0,1,.69,4.8c3.9.78,9.74-2.91,10.31-6.7A16.65,16.65,0,0,0,378.7,139.61Z" style="opacity:0.2"></path><path d="M391.81,123.34c-2.71,11.34-3.73,18.12-10.55,22.93-10.26,7.25-23.49-.61-24.22-12.56-.66-10.76,3.89-27.49,15.91-30A16.07,16.07,0,0,1,391.81,123.34Z" style="fill:#ce7a63"></path><path d="M359.33,131.94s4.59-.46,17.17.84c-1.89,3.21-5,5.67-11.4,4.95S359.33,131.94,359.33,131.94Z" style="fill:#fff"></path><path d="M390.11,101.72c-11.42-7-26.69-3.32-29.36,4.28a8.37,8.37,0,0,1,5.42-1.18c-2.3,1.14-5.42,3.93-4.27,7.56,2.77-3.25,5.67-3.34,5.67-3.34s2.12,4,8.94,4.89a36.94,36.94,0,0,1-.79-3.61A14.52,14.52,0,0,0,386.15,118c-2,2.18-2.61,10.09,2.31,13.19,7-.45,12.79-2.79,12.4-7.09a29.37,29.37,0,0,1,1.31,3.25s4.44-5.92-.82-12.67C403.87,111.48,398.51,106.88,390.11,101.72Z" style="fill:#263238"></path><path d="M359,116.2s-2.41,4.85-2,8.48c2.69,0,9.11-1,9.11-1a21.94,21.94,0,0,0,7.94,4.45c4.28,1.11,18.21.18,18.21.18l.58-4s-18.7-6.13-25.92-7.4S359,116.2,359,116.2Z" style="fill:#263238"></path><path d="M395.27,135.57a11,11,0,0,1-7.38,4.1c-3.86.41-5.18-3.21-3.6-6.52,1.43-3,5.16-6.79,8.8-5.66S397.46,132.74,395.27,135.57Z" style="fill:#ce7a63"></path><path d="M374.17,122.45c-.17.93-.79,1.6-1.4,1.49s-1-1-.81-1.9.79-1.6,1.4-1.48S374.33,121.52,374.17,122.45Z" style="fill:#fff"></path><path d="M363,120.28c-.16.93-.79,1.6-1.4,1.49s-1-1-.81-1.9.79-1.6,1.4-1.48S363.15,119.35,363,120.28Z" style="fill:#fff"></path><path d="M367.1,120.28s-3.07,5-5.86,7.16c1.38,1.85,4.31,1.66,4.31,1.66Z" style="fill:#ba4d3c"></path><path d="M373.08,115.05a.66.66,0,0,0-.17.23.56.56,0,0,0,.32.72,5.61,5.61,0,0,0,5.09-.4.55.55,0,0,0,.13-.77.56.56,0,0,0-.78-.13h0a4.51,4.51,0,0,1-4,.27A.56.56,0,0,0,373.08,115.05Z" style="fill:#263238"></path><path d="M362.82,114.3a.58.58,0,0,0-.34-.41,4.39,4.39,0,0,1-2.72-2.94.56.56,0,0,0-.65-.44.57.57,0,0,0-.44.66,5.45,5.45,0,0,0,3.39,3.76.56.56,0,0,0,.73-.31A.6.6,0,0,0,362.82,114.3Z" style="fill:#263238"></path><path d="M410.5,174.45c1,2,1.83,3.86,2.66,5.81s1.64,3.86,2.42,5.81c1.57,3.89,3,7.86,4.31,11.91s2.5,8.2,3.44,12.57c.47,2.19.89,4.43,1.21,6.79A46.23,46.23,0,0,1,425,225a28.35,28.35,0,0,1-.48,4.66,22.19,22.19,0,0,1-.71,2.77l-.26.75-.32.79a14.94,14.94,0,0,1-.67,1.38l-.49.88c-.22.36-.44.73-.67,1.08-.45.69-.93,1.35-1.41,2a27.28,27.28,0,0,1-3,3.2,47.17,47.17,0,0,1-12.38,7.89c-2.06,1-4.13,1.75-6.2,2.48s-4.14,1.37-6.22,1.93-4.16,1.05-6.25,1.48-4.14.75-6.41,1a5.51,5.51,0,0,1-3.2-10.35l.28-.14c6.77-3.51,13.81-7.22,19.62-11.35a35.55,35.55,0,0,0,7.12-6.31,12.23,12.23,0,0,0,.92-1.39,4,4,0,0,0,.27-.56l.08-.23.19-.47s0-.08,0,0a.36.36,0,0,0,0,.09.05.05,0,0,0,0,0s0-.05,0-.18,0-.77-.06-1.36a36.53,36.53,0,0,0-.66-4.35c-.33-1.62-.77-3.32-1.27-5-1-3.46-2.18-7-3.51-10.6s-2.73-7.16-4.16-10.75L392.78,189l-2.21-5.25-.1-.23a11,11,0,0,1,20-9Z" style="fill:#263238"></path><path d="M410.5,174.45c1,2,1.83,3.86,2.66,5.81s1.64,3.86,2.42,5.81c1.57,3.89,3,7.86,4.31,11.91s2.5,8.2,3.44,12.57c.47,2.19.89,4.43,1.21,6.79A46.23,46.23,0,0,1,425,225a28.35,28.35,0,0,1-.48,4.66,22.19,22.19,0,0,1-.71,2.77l-.26.75-.32.79a14.94,14.94,0,0,1-.67,1.38l-.49.88c-.22.36-.44.73-.67,1.08-.45.69-.93,1.35-1.41,2a27.28,27.28,0,0,1-3,3.2,47.17,47.17,0,0,1-12.38,7.89c-2.06,1-4.13,1.75-6.2,2.48s-4.14,1.37-6.22,1.93-4.16,1.05-6.25,1.48-4.14.75-6.41,1a5.51,5.51,0,0,1-3.2-10.35l.28-.14c6.77-3.51,13.81-7.22,19.62-11.35a35.55,35.55,0,0,0,7.12-6.31,12.23,12.23,0,0,0,.92-1.39,4,4,0,0,0,.27-.56l.08-.23.19-.47s0-.08,0,0a.36.36,0,0,0,0,.09.05.05,0,0,0,0,0s0-.05,0-.18,0-.77-.06-1.36a36.53,36.53,0,0,0-.66-4.35c-.33-1.62-.77-3.32-1.27-5-1-3.46-2.18-7-3.51-10.6s-2.73-7.16-4.16-10.75L392.78,189l-2.21-5.25-.1-.23a11,11,0,0,1,20-9Z" style="fill:#fff;opacity:0.2"></path><path d="M376.25,246.18l-8.13.14L372.36,260a23.42,23.42,0,0,0,7.18-2.34,5.91,5.91,0,0,0,2.32-7.78l-.17-.34A5.94,5.94,0,0,0,376.25,246.18Z" style="fill:#ce7a63"></path><path d="M359.46,255.15l2.3,4.53a4.11,4.11,0,0,0,4.92,2.06l5.68-1.79-4.24-13.63-6.76,3.25A4.12,4.12,0,0,0,359.46,255.15Z" style="fill:#ce7a63"></path><path d="M393.49,100.82c-8.94-3.28-16.1-3.2-20.76-2.44a1.71,1.71,0,0,0-.3,3.28c6.94,2.54,12.62,10.12,11.23,21.76-2.78,23.17-15.83,44.72-15.83,44.72l16.63.14s12.2-6.09,19.62-21.85S409.89,106.84,393.49,100.82Z" style="opacity:0.2"></path><path d="M367.9,167.8s20.17-26.23,20.83-47.09-21.6-22.08-21.6-22.08,6.94-5.45,24.08-2.22,22.66,26.47,17.93,43.24a78.11,78.11,0,0,1-14.94,28.18l-28,7.87Z" style="fill:#263238"></path><path d="M367.9,167.8s20.17-26.23,20.83-47.09-21.6-22.08-21.6-22.08,6.94-5.45,24.08-2.22,22.66,26.47,17.93,43.24a78.11,78.11,0,0,1-14.94,28.18l-28,7.87Z" style="fill:#fff;opacity:0.4"></path></g><g id="freepik--Notebook--inject-2"><rect x="153.51" y="172.68" width="142.45" height="216.65" rx="10.45" transform="translate(505.75 56.27) rotate(90)" style="fill:#ff5640"></rect><path d="M126.28,356.15c-5.44,0-11.06,1.46-12.56,3.27L73.63,404.3c-2.12,2.58,1.51,8.62,8.12,8.62H321.08c6.61,0,12-2.13,12-4.71V359.42c0-1.81-4.43-3.27-9.87-3.27Z" style="fill:#ff5640"></path><path d="M126.28,356.15c-5.44,0-11.06,1.46-12.56,3.27L73.63,404.3c-2.12,2.58,1.51,8.62,8.12,8.62H321.08c6.61,0,12-2.13,12-4.71V359.42c0-1.81-4.43-3.27-9.87-3.27Z" style="opacity:0.2"></path><path d="M126.28,352.24c-5.44,0-11.06,1.45-12.56,3.27L73.63,404.3c-2.12,2.58,1.51,4.71,8.12,4.71H321.08c6.61,0,12-2.13,12-4.71V355.51c0-1.82-4.43-3.27-9.87-3.27Z" style="fill:#ff5640"></path><path d="M121.6,359.63l-16.8,21.54c-1.15,1.48,1.21,2.68,5.28,2.68H313.41c4.08,0,7.43-1.2,7.5-2.68l.89-21.54c.05-1.26-2.91-2.27-6.62-2.27H130.09C126.38,357.36,122.58,358.37,121.6,359.63Z" style="opacity:0.2"></path><path d="M170,389.71,162.79,403c-.38.71.79,1.3,2.62,1.3h75.85c1.83,0,3.48-.59,3.68-1.3l3.74-13.33c.18-.65-1.08-1.18-2.82-1.18H173.8C172.06,388.53,170.36,389.06,170,389.71Z" style="opacity:0.2"></path><rect x="119.23" y="212.6" width="211.02" height="136.82" rx="7.47" style="fill:#fff;opacity:0.7000000000000001"></rect><rect x="169.66" y="263.54" width="110.16" height="65.58" style="fill:#ff5640"></rect><rect x="169.66" y="263.54" width="110.16" height="65.58" style="opacity:0.1"></rect><polygon points="224.74 299.31 279.82 263.54 169.66 263.54 224.74 299.31" style="fill:#263238;opacity:0.1"></polygon><path d="M231.62,232.24l48.2,31.3H169.66l48.2-31.3A12.62,12.62,0,0,1,231.62,232.24Z" style="fill:#ff5640"></path><path d="M173.75,263.54l45.8-29.74a9.53,9.53,0,0,1,10.38,0l45.8,29.74Z" style="fill:#263238;opacity:0.2"></path><path d="M229.24,239.21a.74.74,0,0,1-.74-.74V205.2a.74.74,0,0,1,1.48,0v33.27A.74.74,0,0,1,229.24,239.21Z" style="fill:#263238"></path><path d="M229.24,205.94a3,3,0,1,1,3-3.05A3,3,0,0,1,229.24,205.94Zm0-4.62a1.57,1.57,0,1,0,1.57,1.57A1.57,1.57,0,0,0,229.24,201.32Z" style="fill:#263238"></path><polygon points="196.43 230.62 181.72 235.04 179.44 269.89 224.74 299.31 270.04 269.89 272.36 237.23 196.43 230.62" style="fill:#fff"></polygon><path d="M243.08,269.27A16.13,16.13,0,1,1,228.21,252,16.06,16.06,0,0,1,243.08,269.27Z" style="fill:#ff5640;opacity:0.6000000000000001"></path><path d="M239,276a14.34,14.34,0,0,1-25.14-1.89A22.73,22.73,0,0,1,239,276Z" style="fill:#fff"></path><circle cx="227.35" cy="263.36" r="6.39" transform="translate(-73.76 437.66) rotate(-79.26)" style="fill:#fff"></circle><path d="M222,246.44a8,8,0,0,1-7.79-6.35l-.78.78a.74.74,0,0,1-1-1l1.87-1.88a.74.74,0,0,1,1.26.52A6.49,6.49,0,0,0,222,245a.74.74,0,0,1,0,1.48Z" style="fill:#263238"></path><polyline points="196.43 230.62 193.87 238.47 181.72 235.04" style="fill:#e0e0e0"></polyline><polyline points="196.43 230.62 195.19 237.07 181.72 235.04" style="fill:#f0f0f0"></polyline><path d="M215.35,293.2l-45.69,35.92H279.82L234.13,293.2A15.2,15.2,0,0,0,215.35,293.2Z" style="fill:#ff5640"></path></g></svg>